<svg width="20" height="17" fill="none" xmlns="http://www.w3.org/2000/svg"><path d="M20 2.172a8.192 8.192 0 0 1-2.357.646 4.11 4.11 0 0 0 1.805-2.27 8.22 8.22 0 0 1-2.606.996A4.096 4.096 0 0 0 13.847.248c-2.65 0-4.596 2.472-3.998 5.038A11.649 11.649 0 0 1 1.392.999a4.109 4.109 0 0 0 1.27 5.478 4.086 4.086 0 0 1-1.858-.513c-.045 1.9 1.318 3.679 3.291 4.075a4.114 4.114 0 0 1-1.853.07 4.106 4.106 0 0 0 3.833 2.849A8.25 8.25 0 0 1 0 14.658a11.616 11.616 0 0 0 6.29 1.843c7.618 0 11.922-6.434 11.663-12.205A8.353 8.353 0 0 0 20 2.172Z" fill="#2C7566"/></svg>